<svg xmlns="http://www.w3.org/2000/svg" viewBox="0 0 120 120" fill="none">
  <!-- Beacon light rays -->
  <path d="M60 18 L110 5 L95 25 Z" fill="#FF6B35" opacity="0.3"/>
  <path d="M60 18 L115 18 L95 32 Z" fill="#FF6B35" opacity="0.4"/>
  <path d="M60 18 L110 35 L90 38 Z" fill="#FF6B35" opacity="0.3"/>
  <path d="M60 18 L10 5 L25 25 Z" fill="#FF6B35" opacity="0.3"/>
  <path d="M60 18 L5 18 L25 32 Z" fill="#FF6B35" opacity="0.4"/>
  <path d="M60 18 L10 35 L30 38 Z" fill="#FF6B35" opacity="0.3"/>
  <!-- Lighthouse base/platform -->
  <rect x="30" y="95" width="60" height="8" rx="2" fill="#1B2A4A"/>
  <!-- Lighthouse tower -->
  <path d="M42 95 L48 45 L72 45 L78 95 Z" fill="#1B2A4A"/>
  <!-- Lighthouse middle stripe -->
  <rect x="46" y="62" width="28" height="8" fill="#FF6B35" opacity="0.8"/>
  <!-- Lighthouse lantern room -->
  <rect x="46" y="35" width="28" height="12" rx="2" fill="#1B2A4A"/>
  <!-- Lantern light -->
  <circle cx="60" cy="41" r="5" fill="#FF6B35"/>
  <!-- Lighthouse cap -->
  <path d="M48 35 L60 22 L72 35 Z" fill="#1B2A4A"/>
  <!-- Beacon glow -->
  <circle cx="60" cy="41" r="8" fill="#FF6B35" opacity="0.2"/>
  <!-- Windows -->
  <rect x="56" y="75" width="8" height="10" rx="4" fill="#FAFAF7"/>
  <rect x="57" y="50" width="6" height="6" rx="3" fill="#FAFAF7"/>
</svg>
